<?xml version="1.0" encoding="UTF-8"?>
<!DOCTYPE svg PUBLIC "-//W3C//DTD SVG 1.1//EN" "http://www.w3.org/Graphics/SVG/1.1/DTD/svg11.dtd">
<!-- Creator: CorelDRAW X8 -->
<svg xmlns="http://www.w3.org/2000/svg" xml:space="preserve" width="186px" height="119px" version="1.1" style="shape-rendering:geometricPrecision; text-rendering:geometricPrecision; image-rendering:optimizeQuality; fill-rule:evenodd; clip-rule:evenodd"
viewBox="0 0 186 119"
 xmlns:xlink="http://www.w3.org/1999/xlink">
 <defs>
  <style type="text/css">
   <![CDATA[
    .fil8 {fill:none}
    .fil3 {fill:black}
    .fil7 {fill:#030100}
    .fil4 {fill:#415A6B}
    .fil2 {fill:#9EFFA9}
    .fil0 {fill:#DEEAF6}
    .fil6 {fill:#F3F3F3}
    .fil5 {fill:#FFD15C}
    .fil1 {fill:#FFFC9E}
   ]]>
  </style>
   <clipPath id="id0">
    <path d="M0 0l186 0 0 119 -186 0 0 -119z"/>
   </clipPath>
 </defs>
 <g id="Layer_x0020_1">
  <metadata id="CorelCorpID_0Corel-Layer"/>
  <polygon class="fil0" points="0,0 186,0 186,119 0,119 "/>
  <g style="clip-path:url(#id0)">
   <g id="_338971792256">
    <rect class="fil1" transform="matrix(0.229763 -0.171257 0.089044 0.119463 -48.2432 10.4387)" width="352" height="352"/>
    <rect class="fil2" transform="matrix(0.229763 -0.171257 0.089044 0.119463 -50.7436 3.13413)" width="352" height="352"/>
    <rect class="fil3" transform="matrix(0.229763 -0.171257 0.089044 0.119463 -60.6431 -4.17046)" width="352" height="352"/>
    <rect class="fil1" transform="matrix(0.229763 -0.171257 0.089044 0.119463 114.363 126.203)" width="352" height="352"/>
    <rect class="fil2" transform="matrix(0.229763 -0.171257 0.089044 0.119463 128.354 129.928)" width="352" height="352"/>
    <rect class="fil3" transform="matrix(0.229763 -0.171257 0.089044 0.119463 132.699 142.824)" width="352" height="352"/>
    <g id="add-user.svg">
     <path class="fil4" d="M107 37c0,8 -6,19 -14,19 -7,0 -13,-11 -13,-19 0,-11 6,-15 13,-15 8,0 14,4 14,15z"/>
     <g>
      <path class="fil5" d="M95 30c-2,4 -6,6 -11,6 -1,0 -1,0 -2,0 0,2 -1,4 -1,7 0,8 6,15 12,15 7,0 12,-7 12,-15 0,-4 0,-7 -2,-9 -3,-1 -6,-2 -8,-4z"/>
      <path class="fil5" d="M108 44c-1,2 -2,4 -4,4 -1,-1 -2,-3 -1,-6 0,-2 1,-4 3,-4 1,1 2,3 2,6z"/>
      <path class="fil5" d="M79 44c1,2 2,4 3,4 2,-1 2,-3 2,-6 0,-2 -2,-4 -3,-4 -1,1 -2,3 -2,6z"/>
     </g>
     <g>
      <path class="fil4" d="M83 61l10 22 -29 0c0,-14 8,-20 19,-22z"/>
      <path class="fil4" d="M123 83l-30 0 10 -22c12,2 20,8 20,22z"/>
     </g>
     <path class="fil6" d="M93 60c-3,0 -7,0 -10,1l10 22 10 -22c-3,-1 -6,-1 -10,-1z"/>
     <g>
      <polygon class="fil2" points="95,66 97,64 93,60 90,64 92,66 "/>
      <polygon class="fil2" points="90,75 93,83 97,75 95,66 92,66 "/>
     </g>
     <circle class="fil7" cx="111" cy="70" r="13"/>
     <path class="fil6" d="M120 70c0,1 -1,2 -2,2l-4 0 0 5c0,1 -1,2 -2,2 -2,0 -3,-1 -3,-2l0 -5 -4 0c-1,0 -2,-1 -2,-2 0,-1 1,-2 2,-2l4 0 0 -5c0,-1 1,-2 3,-2 1,0 2,1 2,2l0 5 4 0c1,0 2,1 2,2z"/>
     <g>
     </g>
     <g>
     </g>
     <g>
     </g>
     <g>
     </g>
     <g>
     </g>
     <g>
     </g>
     <g>
     </g>
     <g>
     </g>
     <g>
     </g>
     <g>
     </g>
     <g>
     </g>
     <g>
     </g>
     <g>
     </g>
     <g>
     </g>
     <g>
     </g>
    </g>
   </g>
  </g>
  <polygon class="fil8" points="0,0 186,0 186,119 0,119 "/>
 </g>
</svg>
