<?xml version="1.0" encoding="UTF-8"?>
<!DOCTYPE svg PUBLIC "-//W3C//DTD SVG 1.1//EN" "http://www.w3.org/Graphics/SVG/1.1/DTD/svg11.dtd">
<!-- Creator: CorelDRAW X8 -->
<svg xmlns="http://www.w3.org/2000/svg" xml:space="preserve" width="186px" height="119px" version="1.1" style="shape-rendering:geometricPrecision; text-rendering:geometricPrecision; image-rendering:optimizeQuality; fill-rule:evenodd; clip-rule:evenodd"
viewBox="0 0 186 119"
 xmlns:xlink="http://www.w3.org/1999/xlink">
 <defs>
  <style type="text/css">
   <![CDATA[
    .fil18 {fill:none}
    .fil3 {fill:black}
    .fil11 {fill:#293544}
    .fil4 {fill:#3B485B}
    .fil5 {fill:#515F75}
    .fil16 {fill:#79BBE8}
    .fil2 {fill:#9EFFA9}
    .fil17 {fill:#AEDBF4}
    .fil14 {fill:#DD8C22}
    .fil0 {fill:#DEEAF6}
    .fil13 {fill:#E06E86}
    .fil8 {fill:#E6E6E6}
    .fil10 {fill:#EA9E8F}
    .fil15 {fill:#EFA233}
    .fil6 {fill:#F2F2F2}
    .fil12 {fill:#F4AF9D}
    .fil7 {fill:#F74866}
    .fil9 {fill:#F9C2AF}
    .fil1 {fill:#FFFC9E}
   ]]>
  </style>
   <clipPath id="id0">
    <path d="M-2 -1l187 0 0 120 -187 0 0 -120z"/>
   </clipPath>
 </defs>
 <g id="Layer_x0020_1">
  <metadata id="CorelCorpID_0Corel-Layer"/>
  <polygon class="fil0" points="-2,-1 185,-1 185,119 -2,119 "/>
  <g style="clip-path:url(#id0)">
   <g id="_338959420752">
    <rect class="fil1" transform="matrix(0.229763 -0.171257 0.089044 0.119463 -49.7432 9.93911)" width="352" height="352"/>
    <rect class="fil2" transform="matrix(0.229763 -0.171257 0.089044 0.119463 -52.2436 2.63452)" width="352" height="352"/>
    <rect class="fil3" transform="matrix(0.229763 -0.171257 0.089044 0.119463 -62.1431 -4.67007)" width="352" height="352"/>
    <rect class="fil1" transform="matrix(0.229763 -0.171257 0.089044 0.119463 112.863 125.703)" width="352" height="352"/>
    <rect class="fil2" transform="matrix(0.229763 -0.171257 0.089044 0.119463 126.854 129.428)" width="352" height="352"/>
    <rect class="fil3" transform="matrix(0.229763 -0.171257 0.089044 0.119463 131.198 142.324)" width="352" height="352"/>
    <g id="businessman.svg">
     <path class="fil4" d="M91 84l0 9 -37 0 0 -9c0,-4 3,-7 7,-7l24 0c3,0 6,3 6,7l0 0zm0 0z"/>
     <path class="fil5" d="M91 84l0 9 -35 0 0 -9c0,-4 3,-7 7,-7l22 0c3,0 6,3 6,7l0 0zm0 0z"/>
     <g>
      <path class="fil4" d="M61 77l-1 11 5 1 -4 4 23 0 -3 -4 4 -1 -1 -11 -23 0zm0 0l0 0 0 0z"/>
     </g>
     <g>
      <path class="fil6" d="M81 77l-5 16 -7 0 -5 -16 17 0zm0 0l0 0 0 0z"/>
     </g>
     <polygon class="fil7" points="67,81 73,88 78,81 73,80 "/>
     <path class="fil8" d="M67 86l6 -6 5 6 3 -9 -17 0 3 9zm0 0z"/>
     <path class="fil9" d="M77 68l0 9 -4 3 -2 -1 -3 -2 0 -9 3 0 6 0zm0 0z"/>
     <g>
      <path class="fil7" d="M69 93l4 -5 3 5 -7 0zm0 0l0 0 0 0z"/>
     </g>
     <path class="fil10" d="M71 68l-3 0 0 9 3 2 0 -4c1,0 1,0 2,0 1,0 3,0 4,-1l0 -6 -6 0zm0 0z"/>
     <g>
      <path class="fil10" d="M57 59c-2,0 -4,-2 -4,-5 0,-2 2,-4 4,-4l31 0c2,0 5,2 5,4 0,3 -3,5 -5,5l-31 0zm0 0l0 0 0 0z"/>
     </g>
     <path class="fil9" d="M88 41l0 16c0,9 -7,16 -15,16 -5,0 -8,-2 -11,-5 -3,-3 -5,-7 -5,-11l0 -16 31 0zm0 0z"/>
     <path class="fil10" d="M72 73c-4,0 -7,-2 -10,-5 -3,-3 -5,-7 -5,-11l0 -16 7 0 0 16c0,4 1,8 3,11 1,3 3,5 5,5l0 0zm0 0z"/>
     <path class="fil11" d="M70 56c0,-1 1,-1 1,-1l2 0c1,0 1,0 1,1 0,0 0,1 -1,1l-2 0c0,0 -1,-1 -1,-1l0 0zm0 0z"/>
     <path class="fil10" d="M88 41l0 4c-1,0 -2,1 -4,2 -5,2 -11,1 -15,0 0,0 0,0 0,0 -3,-1 -5,-2 -5,-2 0,0 -1,7 -7,7l0 -11 31 0zm0 0z"/>
     <path class="fil5" d="M84 45c-5,2 -11,1 -15,0 0,0 0,0 0,0 -3,-1 -5,-2 -5,-2 0,0 -1,7 -7,7 0,0 -3,-6 -3,-13 0,-3 2,-5 5,-5 1,0 1,0 2,0 1,-4 5,-7 10,-6 0,0 1,0 2,0 0,0 0,0 0,0 0,0 0,0 0,0 7,0 14,2 18,-3 0,0 7,17 -7,22l0 0zm0 0z"/>
     <path class="fil4" d="M71 26c0,0 1,0 2,0 -7,-1 -12,14 -4,19 -3,-1 -5,-2 -5,-2 0,0 -1,7 -7,7 0,0 -3,-6 -3,-13 0,-3 2,-5 5,-5 1,0 1,0 2,0 1,-4 5,-7 10,-6l0 0zm0 0z"/>
     <path class="fil12" d="M73 26c0,0 0,0 0,0 0,0 0,0 0,0l0 0zm0 0z"/>
     <path class="fil13" d="M76 68c-2,0 -4,-1 -5,-2 0,-1 0,-1 0,-2 1,0 1,0 2,0 1,2 4,2 6,0 0,0 1,0 1,0 1,1 1,1 0,2 -1,1 -3,2 -4,2zm0 0z"/>
     <path class="fil12" d="M105 63l0 7 -8 0 0 -7 1 0 -40 0 47 0zm0 0z"/>
     <path class="fil9" d="M105 63l0 7 -5 0 0 -7 5 0zm0 0z"/>
     <path class="fil5" d="M97 70l8 0 0 23 -8 0 0 -23zm0 0z"/>
     <path class="fil4" d="M97 70l3 0 0 23 -3 0 0 -23zm0 0z"/>
     <path class="fil14" d="M114 47l0 17 -15 0c-3,0 -7,-3 -7,-8 0,0 0,0 0,0 0,-5 4,-9 7,-9l15 0zm0 0z"/>
     <g>
      <path class="fil14" d="M81 61l-3 0c-3,0 -4,-2 -4,-5 0,-3 1,-5 4,-5l3 0 0 10zm0 0l0 0 0 0z"/>
     </g>
     <path class="fil15" d="M101 47l0 17 -15 0c-4,0 -6,-3 -7,-8 0,0 0,0 0,0 0,-5 3,-9 7,-9l15 0zm0 0z"/>
     <path class="fil14" d="M99 56l0 8 -13 0c-4,0 -6,-3 -7,-8l20 0zm0 0z"/>
     <path class="fil16" d="M107 56c0,3 -1,6 -3,7 -1,1 -2,1 -3,1 -4,0 -6,-3 -6,-8 0,-5 2,-9 6,-9 1,0 2,1 3,1 2,2 3,5 3,8zm0 0z"/>
     <path class="fil17" d="M107 56c0,3 -1,6 -3,7 -2,-1 -3,-4 -3,-7 0,-3 1,-6 3,-8 2,2 3,5 3,8zm0 0z"/>
     <path class="fil16" d="M120 56c0,-5 -3,-9 -6,-9 -4,0 -7,4 -7,9 0,5 3,8 7,8 3,0 6,-3 6,-8zm0 0z"/>
     <path class="fil17" d="M120 56c0,3 -1,6 -3,7 -2,-1 -4,-4 -4,-7 0,-3 2,-6 4,-8 2,2 3,5 3,8zm0 0z"/>
     <path class="fil12" d="M93 62l0 8 -9 0 0 -8c0,-1 1,-1 2,-1l6 0c0,0 1,0 1,1zm0 0z"/>
     <path class="fil9" d="M93 62l0 8 -5 0 0 -8c0,-1 1,-1 1,-1l3 0c0,0 1,0 1,1zm0 0z"/>
     <path class="fil5" d="M84 70l9 0 0 23 -9 0 0 -23zm0 0z"/>
     <path class="fil4" d="M84 70l4 0 0 23 -4 0 0 -23zm0 0z"/>
    </g>
   </g>
  </g>
  <polygon class="fil18" points="-2,-1 185,-1 185,119 -2,119 "/>
 </g>
</svg>
